<svg viewBox="0 0 400 250" xmlns="http://www.w3.org/2000/svg">
  <defs>
    <linearGradient id="networkGrad" x1="0%" y1="0%" x2="100%" y2="100%">
      <stop offset="0%" style="stop-color:#00d4ff;stop-opacity:1" />
      <stop offset="100%" style="stop-color:#0099cc;stop-opacity:1" />
    </linearGradient>
  </defs>
  <rect width="400" height="250" fill="#0a0e27"/>
  <rect x="60" y="30" width="60" height="60" rx="5" fill="none" stroke="#00d4ff" stroke-width="2"/>
  <circle cx="90" cy="60" r="20" fill="#00d4ff"/>
  <rect x="170" y="30" width="60" height="60" rx="5" fill="none" stroke="#00d4ff" stroke-width="2"/>
  <circle cx="200" cy="60" r="20" fill="#00d4ff"/>
  <rect x="280" y="30" width="60" height="60" rx="5" fill="none" stroke="#00d4ff" stroke-width="2"/>
  <circle cx="310" cy="60" r="20" fill="#00d4ff"/>
  <line x1="120" y1="60" x2="170" y2="60" stroke="#00d4ff" stroke-width="2" marker-end="url(#arrowhead)"/>
  <line x1="230" y1="60" x2="280" y2="60" stroke="#00d4ff" stroke-width="2" marker-end="url(#arrowhead)"/>
  <g id="layers">
    <rect x="50" y="120" width="300" height="30" rx="5" fill="none" stroke="#00d4ff" stroke-width="1.5" opacity="0.7"/>
    <text x="60" y="141" font-family="Arial, sans-serif" font-size="12" fill="#00d4ff">Layer 7: Application</text>
    <rect x="50" y="160" width="300" height="30" rx="5" fill="none" stroke="#00d4ff" stroke-width="1.5" opacity="0.7"/>
    <text x="60" y="181" font-family="Arial, sans-serif" font-size="12" fill="#00d4ff">Layer 4: Transport</text>
    <rect x="50" y="200" width="300" height="30" rx="5" fill="none" stroke="#00d4ff" stroke-width="1.5" opacity="0.7"/>
    <text x="60" y="221" font-family="Arial, sans-serif" font-size="12" fill="#00d4ff">Layer 1: Physical</text>
  </g>
  <defs>
    <marker id="arrowhead" markerWidth="10" markerHeight="7" refX="9" refY="3.5" orient="auto">
      <polygon points="0 0, 10 3.5, 0 7" fill="#00d4ff" />
    </marker>
  </defs>
</svg>