<svg viewBox="0 0 400 250" xmlns="http://www.w3.org/2000/svg">
  <defs>
    <linearGradient id="xdrGrad" x1="0%" y1="0%" x2="100%" y2="100%">
      <stop offset="0%" style="stop-color:#00d4ff;stop-opacity:1" />
      <stop offset="100%" style="stop-color:#0099cc;stop-opacity:1" />
    </linearGradient>
  </defs>
  <rect width="400" height="250" fill="#0a0e27"/>
  <circle cx="200" cy="125" r="80" fill="url(#xdrGrad)" opacity="0.2"/>
  <circle cx="200" cy="125" r="60" fill="none" stroke="#00d4ff" stroke-width="2"/>
  <circle cx="200" cy="125" r="40" fill="none" stroke="#00d4ff" stroke-width="2"/>
  <circle cx="140" cy="85" r="6" fill="#00d4ff"/>
  <circle cx="260" cy="85" r="6" fill="#00d4ff"/>
  <circle cx="200" cy="50" r="6" fill="#00d4ff"/>
  <circle cx="110" cy="125" r="6" fill="#00d4ff"/>
  <circle cx="290" cy="125" r="6" fill="#00d4ff"/>
  <circle cx="140" cy="165" r="6" fill="#00d4ff"/>
  <circle cx="260" cy="165" r="6" fill="#00d4ff"/>
  <circle cx="200" cy="200" r="6" fill="#00d4ff"/>
  <line x1="200" y1="125" x2="140" y2="85" stroke="#00d4ff" stroke-width="1.5" opacity="0.6"/>
  <line x1="200" y1="125" x2="260" y2="85" stroke="#00d4ff" stroke-width="1.5" opacity="0.6"/>
  <line x1="200" y1="125" x2="200" y2="50" stroke="#00d4ff" stroke-width="1.5" opacity="0.6"/>
  <line x1="200" y1="125" x2="110" y2="125" stroke="#00d4ff" stroke-width="1.5" opacity="0.6"/>
  <line x1="200" y1="125" x2="290" y2="125" stroke="#00d4ff" stroke-width="1.5" opacity="0.6"/>
  <line x1="200" y1="125" x2="140" y2="165" stroke="#00d4ff" stroke-width="1.5" opacity="0.6"/>
  <line x1="200" y1="125" x2="260" y2="165" stroke="#00d4ff" stroke-width="1.5" opacity="0.6"/>
  <line x1="200" y1="125" x2="200" y2="200" stroke="#00d4ff" stroke-width="1.5" opacity="0.6"/>
  <text x="200" y="235" font-family="Arial, sans-serif" font-size="16" fill="#00d4ff" text-anchor="middle" font-weight="bold">XDR Detection & Response</text>
</svg>